<svg width="46" height="46" viewBox="0 0 46 46" fill="none" xmlns="http://www.w3.org/2000/svg">
<g id="github 3">
<g clip-path="url(#clip0_18_17)">
<rect width="46" height="46" rx="23" fill="black"/>
<g id="4">
<path id="BG" d="M23 47.2321C35.7025 47.2321 46 36.6589 46 23.6161C46 10.5733 35.7025 0 23 0C10.2975 0 0 10.5733 0 23.6161C0 36.6589 10.2975 47.2321 23 47.2321Z" fill="#F9F9F7" fill-opacity="0.12"/>
<g id="logo-github 1">
<g id="Group">
<path id="Vector" fill-rule="evenodd" clip-rule="evenodd" d="M24.0283 12.196C18.129 12.196 13.3828 17.0693 13.3828 23.1268C13.3828 27.9545 16.4434 32.0535 20.6573 33.5109C21.1895 33.602 21.367 33.2832 21.367 32.9644C21.367 32.6911 21.367 32.0079 21.367 31.097C18.3951 31.7802 17.7741 29.6396 17.7741 29.6396C17.2862 28.3644 16.5765 28.0456 16.5765 28.0456C15.6007 27.3624 16.6652 27.3624 16.6652 27.3624C17.7298 27.4535 18.3064 28.501 18.3064 28.501C19.2379 30.1862 20.7903 29.6852 21.4113 29.4119C21.5 28.6832 21.7662 28.2278 22.0767 27.9545C19.7258 27.6812 17.2418 26.7248 17.2418 22.5347C17.2418 21.3506 17.641 20.3486 18.3507 19.6199C18.262 19.3466 17.8628 18.2536 18.4395 16.705C18.4395 16.705 19.3266 16.4317 21.367 17.8437C22.2097 17.6158 23.1412 17.4791 24.0283 17.4791C24.9155 17.4791 25.8471 17.6158 26.6899 17.8437C28.7302 16.4317 29.6174 16.705 29.6174 16.705C30.194 18.208 29.8392 19.3011 29.7061 19.6199C30.3714 20.3941 30.815 21.3506 30.815 22.5347C30.815 26.7248 28.331 27.6357 25.9358 27.9089C26.335 28.2278 26.6455 28.9109 26.6455 29.9129C26.6455 31.3703 26.6455 32.5545 26.6455 32.9188C26.6455 33.1921 26.8229 33.5564 27.3996 33.4653C31.6134 32.0535 34.674 27.9545 34.674 23.1268C34.674 17.0693 29.9279 12.196 24.0283 12.196Z" fill="#F9F9F7"/>
</g>
</g>
</g>
</g>
</g>
<defs>
<clipPath id="clip0_18_17">
<rect width="46" height="46" rx="23" fill="white"/>
</clipPath>
</defs>
</svg>
