<svg width="60" height="56" viewBox="0 0 60 56" fill="none" xmlns="http://www.w3.org/2000/svg">
<g id="icons8-facebook-nuevo 1">
<path id="Vector" d="M30 5.83325C23.7011 5.83325 17.6602 8.16866 13.2062 12.3257C8.75222 16.4828 6.25 22.121 6.25 27.9999C6.25 33.8789 8.75222 39.5171 13.2062 43.6741C17.6602 47.8312 23.7011 50.1666 30 50.1666C36.2989 50.1666 42.3398 47.8312 46.7938 43.6741C51.2478 39.5171 53.75 33.8789 53.75 27.9999C53.75 22.121 51.2478 16.4828 46.7938 12.3257C42.3398 8.16866 36.2989 5.83325 30 5.83325Z" fill="#039BE5"/>
<path id="Vector_2" d="M33.215 33.8754H39.3613L40.3263 28.0479H33.2138V24.8629C33.2138 22.4421 34.0613 20.2954 36.4875 20.2954H40.3863V15.2099C39.7013 15.1236 38.2525 14.9346 35.515 14.9346C29.7988 14.9346 26.4475 17.7521 26.4475 24.1711V28.0479H20.5713V33.8754H26.4475V49.8926C27.6113 50.0559 28.79 50.1667 30 50.1667C31.0938 50.1667 32.1613 50.0734 33.215 49.9404V33.8754Z" fill="white"/>
</g>
</svg>
